# xmcd CD database file
#
# Track frame offsets:
#	150
#	14562
#	30474
#	53839
#	67299
#	80331
#	98607
#	117416
#	148149
#	167026
#	183841
#	200382
#	218189
#	235105
#	254975
#	275921
#	293725
#	312437
#
# Disc length: 4449 seconds
#
# Revision: 0
# Processed by: cddbd v1.5.2PL0 Copyright (c) Steve Scherf et al.
# Submitted via: CDex 1.51
#
DISCID=16115f12
DTITLE=Various Artist - Magic Moments 5
DYEAR=2011
DGENRE=Jazz
TTITLE0=JAN JOHANSSON - GEORG RIEDEL - Visa från Utanmyra
TTITLE1=LESZEK MOZDZER - Svantetic
TTITLE2=NGUYÊN LÊ and YOUN SUN NAH - Eleanor Rigby
TTITLE3=DANILO REA - FLAVIO BOLTRO - Lasciatemi morire
TTITLE4=J. and R. WASSERFUHR - DANIELSSON - HAFFNER - Midnight Walk
TTITLE5=VIKTORIA TOLSTOY - JACOB KARLZON - Come On, Come Over
TTITLE6=HAFFNER - STUDNITZKY - DANIELSSON - Heartbeat
TTITLE7=NILS LANDGREN - MICHAEL WOLLNY - Fragile
TTITLE8=ESBJÖRN SVENSSON - Prelude In D-Minor
TTITLE9=IDA SAND - NILS LANDGREN - Love Is Real
TTITLE10=MAGNUS ÖSTRÖM - Piano Break Song
TTITLE11=TONBRUKET - DAN BERGLUND - Le Var
TTITLE12=WOLLNY - KRUSE - SCHAEFER - Shelley
TTITLE13=MO'BLOW - Eleven Feels Like Heaven
TTITLE14=THREE FALL - Under The Bridge
TTITLE15=CAECILIE NORBY - LARS DANIELSSON - No air
TTITLE16=IIRO RANTALA - One More Waltz For Michel Petrucciani
TTITLE17=VERNERI POHJOLA - At The End Of This Album
EXTD=YEAR: 2011
EXTT0=
EXTT1=
EXTT2=
EXTT3=
EXTT4=
EXTT5=
EXTT6=
EXTT7=
EXTT8=
EXTT9=
EXTT10=
EXTT11=
EXTT12=
EXTT13=
EXTT14=
EXTT15=
EXTT16=
EXTT17=
PLAYORDER=
